<?xml version="1.0" standalone="no"?>
<!DOCTYPE svg PUBLIC "-//W3C//DTD SVG 20010904//EN"
 "http://www.w3.org/TR/2001/REC-SVG-20010904/DTD/svg10.dtd">
<svg version="1.0" xmlns="http://www.w3.org/2000/svg"
 width="260.000000pt" height="260.000000pt" viewBox="0 0 260.000000 260.000000"
 preserveAspectRatio="xMidYMid meet">
<metadata>
Created by potrace 1.14, written by Peter Selinger 2001-2017
</metadata>
<g transform="translate(0.000000,260.000000) scale(0.100000,-0.100000)"
fill="#000000" stroke="none">
<path d="M1099 2111 c-14 -5 -35 -14 -48 -20 -32 -17 -91 -145 -91 -196 0 -60
44 -162 89 -210 86 -87 121 -136 121 -166 0 -37 -23 -47 -60 -25 -16 9 -42 16
-58 16 -43 0 -140 -84 -177 -152 -74 -137 -75 -141 -85 -251 -8 -94 -14 -117
-44 -175 -20 -37 -47 -95 -62 -129 -22 -51 -36 -69 -80 -99 -58 -40 -46 -39
-214 -13 -88 13 -197 7 -237 -15 -15 -8 -40 -30 -55 -49 -15 -20 -43 -41 -63
-47 -31 -10 -35 -15 -35 -46 0 -25 4 -34 17 -34 9 0 57 -43 107 -96 83 -86 98
-98 166 -124 41 -15 103 -40 137 -54 34 -15 99 -31 145 -37 119 -16 370 -16
535 -1 114 10 170 10 295 0 301 -25 579 -10 693 39 33 14 92 37 130 51 58 22
84 40 152 105 88 85 117 131 107 172 -4 14 -34 50 -70 80 -55 47 -71 54 -121
61 -34 4 -97 2 -153 -6 -193 -25 -181 -26 -232 17 -62 52 -88 92 -108 166 -10
34 -30 86 -44 114 -20 37 -30 76 -36 141 -6 50 -16 108 -23 130 -17 49 -96
159 -147 206 -48 44 -81 53 -137 38 -65 -18 -73 -16 -73 17 0 31 80 136 127
166 25 17 103 174 103 209 0 37 -82 187 -110 201 -34 18 -121 29 -154 21 -40
-10 -31 -32 38 -99 102 -98 106 -118 46 -218 -44 -73 -102 -129 -136 -129 -26
0 -114 90 -143 148 -25 49 -27 109 -6 140 9 12 36 35 60 52 45 31 81 82 70
100 -7 12 -98 12 -136 1z m377 -748 c105 -116 110 -125 123 -220 6 -49 11
-109 11 -132 0 -34 7 -51 35 -83 23 -28 38 -58 46 -97 13 -63 22 -84 55 -124
43 -51 31 -82 -51 -126 -22 -12 -55 -33 -74 -46 -45 -33 -97 -34 -112 -2 -8
18 -6 37 10 83 43 129 52 266 22 335 -10 24 -22 69 -26 99 -10 88 -33 157 -64
192 -51 59 -65 110 -39 136 19 19 37 14 64 -15z m-376 -3 c14 -26 -7 -84 -55
-155 -40 -57 -54 -107 -55 -195 0 -30 -7 -90 -14 -133 -15 -86 -9 -179 18
-256 30 -82 18 -111 -46 -111 -30 0 -47 9 -88 45 -28 25 -56 45 -63 45 -18 0
-57 38 -57 54 0 7 14 30 30 51 17 21 37 61 45 89 8 28 30 68 47 90 30 38 32
45 39 158 9 131 20 176 50 204 12 11 30 37 41 59 11 22 27 48 36 58 20 23 59
22 72 -3z m229 -130 c63 -125 91 -246 91 -398 0 -99 -25 -235 -54 -291 -20
-38 -92 -101 -116 -101 -23 0 -94 86 -121 145 -60 136 -47 435 25 575 18 36
37 81 41 100 11 52 33 82 58 78 17 -2 35 -28 76 -108z m-909 -689 c83 -49 115
-56 171 -37 64 23 77 21 163 -30 43 -25 108 -57 144 -71 78 -29 92 -39 92 -64
0 -37 -38 -49 -150 -49 -155 1 -331 30 -405 67 -33 16 -84 38 -113 49 -66 23
-99 55 -108 102 -6 31 -3 39 21 60 25 21 35 23 74 18 25 -3 74 -23 111 -45z
m1872 19 c19 -23 18 -39 -6 -90 -12 -27 -27 -35 -174 -101 -111 -49 -276 -79
-437 -79 -116 0 -148 13 -143 58 3 24 13 30 88 57 47 17 112 49 145 70 52 34
66 39 105 36 150 -12 171 -9 245 37 62 38 75 43 115 39 30 -3 50 -12 62 -27z"/>
</g>
</svg>
